<?xml version="1.0" standalone="no"?>
<!DOCTYPE svg PUBLIC "-//W3C//DTD SVG 20010904//EN"
 "http://www.w3.org/TR/2001/REC-SVG-20010904/DTD/svg10.dtd">
<svg version="1.0" xmlns="http://www.w3.org/2000/svg"
 width="24.000000pt" height="40.000000pt" viewBox="0 0 24.000000 40.000000"
 preserveAspectRatio="xMidYMid meet">

<g transform="translate(0.000000,40.000000) scale(0.100000,-0.100000)"
fill="#8047F8" stroke="none">
<path d="M30 380 c0 -11 -7 -20 -15 -20 -8 0 -15 -7 -15 -15 0 -12 20 -15 120
-15 96 0 120 3 120 14 0 8 -7 16 -15 20 -8 3 -15 12 -15 21 0 12 -16 15 -90
15 -83 0 -90 -1 -90 -20z"/>
<path d="M25 283 c2 -16 7 -65 10 -110 7 -101 15 -143 26 -143 5 0 18 15 29
32 25 40 23 84 -2 80 -19 -3 -25 22 -8 33 6 3 10 14 10 24 0 11 9 29 19 42
l20 24 15 -36 c21 -50 31 -93 19 -86 -5 3 -14 2 -21 -2 -16 -9 2 -72 27 -95
17 -16 19 -15 29 11 6 15 14 79 18 141 l7 112 -101 0 -101 0 4 -27z"/>
</g>
</svg>
