<svg width="1440" height="544" viewBox="0 0 1440 544" fill="none" xmlns="http://www.w3.org/2000/svg">
<g clip-path="url(#clip0_212_16580)" filter="url(#filter0_f_212_16580)">
<path opacity="0.15" d="M1376.1 237.88C1409.66 274.97 1436.87 339.451 1386.72 384.973C1381.55 389.666 1333.03 432.248 1260.05 426.96C1171.17 420.52 1152.94 350.812 1054.84 332.716C948.614 313.119 886.266 379.425 834.388 359.056C773.044 334.97 765.513 205.071 876.547 149.396C1010.31 82.3255 1285.87 138.151 1376.1 237.88Z" fill="#EBC136"/>
<path opacity="0.15" d="M539.994 429.639C571.099 410.569 604.994 372.148 583.944 333.285C581.773 329.278 561.04 292.654 512.39 283.834C453.133 273.09 423.75 316.52 355.585 311.996C281.766 307.096 258.046 252.301 219.275 257.114C173.43 262.806 135.815 348.21 193.782 404.149C263.614 471.538 456.356 480.917 539.994 429.639Z" fill="#EBC136"/>
<path opacity="0.15" d="M722.577 321.89C707.168 300.799 691.423 260.221 704.925 222.859C706.317 219.007 719.517 183.857 745.912 178.297C778.062 171.526 791.11 216.799 827.628 216.823C867.176 216.849 883.042 163.774 903.375 171.155C927.417 179.883 942.351 267.57 908.204 319.508C867.068 382.075 764.012 378.602 722.577 321.89Z" fill="#EBC136"/>
<path opacity="0.15" d="M710.453 274.802C727.293 264.124 745.656 242.633 734.295 220.936C733.124 218.699 721.932 198.254 695.619 193.363C663.57 187.407 647.644 211.693 610.77 209.218C570.838 206.538 558.044 175.943 537.066 178.661C512.261 181.876 491.853 229.62 523.174 260.828C560.906 298.423 665.17 303.514 710.453 274.802Z" fill="#EBC136"/>
<path opacity="0.15" d="M1435.61 248.365C1453.78 232.046 1473.74 199.494 1461.97 167.192C1460.76 163.861 1449.15 133.43 1421.14 126.595C1387.01 118.269 1369.6 154.965 1330.27 151.946C1287.67 148.678 1274.52 103.066 1252.08 107.534C1225.53 112.818 1202.94 184.751 1235.87 230.934C1275.53 286.569 1386.78 292.244 1435.61 248.365Z" fill="#8047F8"/>
<path opacity="0.15" d="M1447.61 377.852C1461.73 388.804 1477.2 410.725 1467.87 432.622C1466.91 434.88 1457.72 455.511 1435.81 460.261C1409.12 466.047 1395.66 441.312 1364.93 443.533C1331.64 445.938 1321.18 476.841 1303.67 473.922C1282.95 470.471 1265.6 421.932 1291.51 390.552C1322.72 352.749 1409.64 348.404 1447.61 377.852Z" fill="#8047F8"/>
<path opacity="0.15" d="M247.28 136.892C259.867 158.616 272.31 200.056 260.056 237.491C258.792 241.351 246.842 276.558 224.366 281.502C196.991 287.524 186.934 241.405 156.008 240.442C122.517 239.4 107.915 292.665 90.858 284.678C70.6884 275.234 59.9662 186.175 90.0247 134.53C126.236 72.3152 213.435 78.4762 247.28 136.892Z" fill="#EBC136"/>
<path opacity="0.15" d="M889.741 432.947C863.819 413.727 838.625 375.18 865.126 336.528C867.858 332.543 893.674 296.123 940.905 287.62C998.433 277.262 1018.52 320.78 1083.34 316.683C1153.54 312.246 1185.31 257.712 1220.9 262.753C1262.98 268.713 1283.54 354.166 1219.4 409.631C1142.14 476.449 959.443 484.627 889.741 432.947Z" fill="#EBC136"/>
<path opacity="0.15" d="M816.054 399.538C837.726 380.513 860.443 343.904 843.136 310.187C841.352 306.71 824.391 274.989 788.524 269.962C744.838 263.84 725.661 304.687 675.806 304.695C621.816 304.704 601.754 256.808 573.775 263.46C540.689 271.327 517.66 350.444 562.712 397.321C616.985 453.792 757.779 450.695 816.054 399.538Z" fill="#8047F8"/>
<path opacity="0.15" d="M863.67 141.004C904.274 151.666 947.393 171.465 916.608 188.257C913.434 189.989 883.218 205.762 817.243 207.009C736.885 208.528 700.152 186.67 608.213 184.784C508.648 182.742 473.258 206.767 421.436 202.269C360.159 196.95 315.039 155.145 396.55 132.591C494.744 105.42 754.49 112.335 863.67 141.004Z" fill="#8047F8"/>
<path opacity="0.15" d="M195.41 382.866C214.523 360.714 234.675 318.381 219.759 279.978C218.221 276.018 203.592 239.899 172.219 234.685C134.006 228.335 116.923 275.475 73.2648 276.25C25.9851 277.089 8.75634 222.467 -15.7929 230.526C-44.8217 240.056 -65.5488 331.145 -26.4282 384.214C20.6995 448.144 144.016 442.431 195.41 382.866Z" fill="#8047F8"/>
</g>
<defs>
<filter id="filter0_f_212_16580" x="-160" y="-160" width="1762" height="864" filterUnits="userSpaceOnUse" color-interpolation-filters="sRGB">
<feFlood flood-opacity="0" result="BackgroundImageFix"/>
<feBlend mode="normal" in="SourceGraphic" in2="BackgroundImageFix" result="shape"/>
<feGaussianBlur stdDeviation="80" result="effect1_foregroundBlur_212_16580"/>
</filter>
<clipPath id="clip0_212_16580">
<rect width="1442" height="544" fill="white"/>
</clipPath>
</defs>
</svg>
